# xmcd
#
# Track frame offsets: 
#        150
#        19007
#        35730
#        53301
#        72891
#        90443
#        111928
#        129990
#        149922
#
# Disc length: 2326 seconds
#
# Revision: 0
# Processed by: cddbd v1.5.2PL0 Copyright (c) Steve Scherf et al.
# Submitted via: ExactAudioCopy v0.99pb3
#
DISCID=77091409
DTITLE=James Grant and Small Mercies - James Grant and Small Mercies
DYEAR=1997
DGENRE=Blues
TTITLE0=So Many Nights
TTITLE1=Bent Out Of Shape
TTITLE2=Jade
TTITLE3=Talk Is Cheap
TTITLE4=Bigger Than Life
TTITLE5=They're The Ones
TTITLE6=Never Far Away
TTITLE7=Small Mercies
TTITLE8=Soul Resurrection
EXTD=
EXTT0=
EXTT1=
EXTT2=
EXTT3=
EXTT4=
EXTT5=
EXTT6=
EXTT7=
EXTT8=
PLAYORDER=
